<svg xmlns="http://www.w3.org/2000/svg" viewBox="0 0 99.52 17.75"><defs><style>.cls-1{fill:#444344}.cls-3{fill:#c4d11d}.cls-5{fill:#fff}.cls-6{fill:#6f6e6f}.cls-8{fill:#0f9144}</style></defs><g id="レイヤー_2" data-name="レイヤー 2"><g id="レイヤー_1-2" data-name="レイヤー 1"><g id="logo"><g id="text"><path class="cls-1" d="M21.32 5.1a8.08 8.08 0 0 0 .12-1.33 8.68 8.68 0 0 1 1.44.4.24.24 0 0 1 .19.24.26.26 0 0 1-.09.18 1.51 1.51 0 0 0-.24.45c-.15.49-.27.94-.43 1.44.33 0 .69-.05.94-.05 1.12 0 1.74.77 1.74 2.22a10.22 10.22 0 0 1-.65 3.85 1.72 1.72 0 0 1-1.62 1.13 4.09 4.09 0 0 1-1.19-.13.32.32 0 0 1-.21-.34 3.44 3.44 0 0 0-.23-1.11 3.68 3.68 0 0 0 1.32.26c.39 0 .57-.14.77-.63a9.41 9.41 0 0 0 .46-3c0-.85-.15-1.11-.68-1.11a7.58 7.58 0 0 0-1 .08 32.81 32.81 0 0 1-2.41 5.64.19.19 0 0 1-.31.1 5.12 5.12 0 0 1-.83-.52.24.24 0 0 1-.09-.18.27.27 0 0 1 0-.14 24.75 24.75 0 0 0 2.2-4.7l-1.18.21a3.7 3.7 0 0 0-.66.19.26.26 0 0 1-.38-.16 9.66 9.66 0 0 1-.3-1.21c.53 0 1.05 0 1.58-.09s.95-.1 1.42-.18c.15-.68.23-1.1.32-1.51Zm4.88.81c.08 0 .14 0 .23.06a8.1 8.1 0 0 1 2 2.91.18.18 0 0 1-.05.24 5.22 5.22 0 0 1-.9.6c-.12.06-.24 0-.28-.1a8.15 8.15 0 0 0-2-3.1 7.52 7.52 0 0 1 1-.61ZM32.86 7c.92-.14 1.6-.28 2.09-.38a1.73 1.73 0 0 0 .48-.2.42.42 0 0 1 .26-.08.32.32 0 0 1 .2.08 2.76 2.76 0 0 1 .71.58.4.4 0 0 1 .13.28.32.32 0 0 1-.21.27 2.28 2.28 0 0 0-.39.28c-.88.84-1.38 1.34-2.18 2.2a1.78 1.78 0 0 1 .43 0 1.35 1.35 0 0 1 1.31 1.21c.24 1 .43 1.17 1.32 1.17a7.65 7.65 0 0 0 1.86-.22c.13 0 .19 0 .21.19a5.86 5.86 0 0 1 .09 1.05c0 .12-.06.17-.22.19a9.93 9.93 0 0 1-1.76.16c-1.76 0-2.34-.47-2.59-1.66-.19-.81-.34-1.15-.76-1.15a1.7 1.7 0 0 0-1.12.6c-.54.55-1.42 1.61-1.83 2.11a.19.19 0 0 1-.16.09.3.3 0 0 1-.14-.05 8 8 0 0 1-.84-.73.27.27 0 0 1-.06-.12.3.3 0 0 1 .1-.19l2.27-2.31c.46-.48 1.09-1.17 2.37-2.55-.9.24-1.7.43-2.49.63a3.9 3.9 0 0 0-.65.22.53.53 0 0 1-.29.03c-.09 0-.15-.06-.21-.2a9.26 9.26 0 0 1-.48-1.35A13.09 13.09 0 0 0 32.86 7Zm3.35-2.57c.12 0 .16.1.13.27a6.62 6.62 0 0 1-.33 1c0 .1-.1.16-.2.13a18.46 18.46 0 0 1-3.35-1 .16.16 0 0 1-.1-.22 10 10 0 0 1 .4-1.12 20.3 20.3 0 0 0 3.45.89ZM45 8.29a3.68 3.68 0 0 1 1.91-.54 2.78 2.78 0 0 1 3 2.88c0 2-1.61 3.29-4.18 3.29-1.51 0-2.42-.65-2.42-1.77A1.59 1.59 0 0 1 45 10.69a2.18 2.18 0 0 1 2.25 1.75 1.81 1.81 0 0 0 1.23-1.82 1.75 1.75 0 0 0-1.89-1.81 4.87 4.87 0 0 0-3.07 1.27c-.35.31-.68.66-1 1-.08.08-.14.13-.2.13a.26.26 0 0 1-.18-.11 4.36 4.36 0 0 1-.71-.78c-.07-.09 0-.18.06-.27a29.79 29.79 0 0 0 2.84-2.65c.74-.77 1.31-1.37 1.86-2l-2.32.45c-.15 0-.31.08-.5.15a1.05 1.05 0 0 1-.24.06c-.12 0-.2-.06-.26-.21a5 5 0 0 1-.42-1.29 5.15 5.15 0 0 0 1.11 0c.73-.07 1.79-.23 2.72-.41a3.18 3.18 0 0 0 .59-.15.73.73 0 0 1 .23-.09.45.45 0 0 1 .28.09 4.58 4.58 0 0 1 .8.77.4.4 0 0 1 .13.29.32.32 0 0 1-.2.29 2 2 0 0 0-.53.38c-.87.85-1.68 1.69-2.59 2.57Zm0 3.42c-.35 0-.58.21-.58.46s.32.62 1 .62a2.48 2.48 0 0 0 .56 0c-.1-.71-.46-1.08-.98-1.08Zm6.77-7.29c0-.12 0-.13.14-.13h1.3a4.31 4.31 0 0 0-.07-.91c.39 0 .78 0 1.11.07.1 0 .15 0 .15.11a.32.32 0 0 1-.06.18 1.56 1.56 0 0 0-.06.55h1.08a6.22 6.22 0 0 0-.06-.91c.37 0 .77 0 1.1.07.1 0 .15 0 .15.11a.55.55 0 0 1 0 .17 1.29 1.29 0 0 0-.06.56h1.22c.07 0 .14 0 .14.13v.71c0 .13 0 .14-.14.14h-1.22v.6c0 .06 0 .12-.13.12h-.86c-.12 0-.13 0-.13-.12v-.6h-1.09v.61c0 .06 0 .13-.14.13h-.85c-.12 0-.13 0-.13-.13v-.61h-1.3c-.12 0-.14 0-.14-.14Zm8.3 2.67a18 18 0 0 1-.33 3.33A9.47 9.47 0 0 1 58.11 14c-.1.12-.16.18-.22.18s-.13-.07-.24-.21a3.14 3.14 0 0 0-.75-.7l.24-.25h-.21c-1.32.27-2.77.5-4.12.7a2.19 2.19 0 0 0-.41.09.53.53 0 0 1-.23.06c-.07 0-.13-.07-.17-.19-.07-.31-.13-.66-.19-1 .47 0 .73 0 1.2-.08s.78-.07 1.25-.13v-.79h-1.73c-.07 0-.14 0-.14-.14V11c0-.13 0-.14.14-.14h1.73v-.6h-1.9c-.07 0-.14 0-.14-.13v-.66c0-.11 0-.12.14-.12h1.9v-.6h-1.97c-.08 0-.13 0-.13-.14V6.34c0-.07 0-.13.13-.13h5.03c.08 0 .14 0 .14.13v2.29c0 .07 0 .14-.14.14h-1.97v.62h1.89c.07 0 .14 0 .14.12v.71c0 .12 0 .13-.14.13h-1.89v.6h1.74c.07 0 .13 0 .13.14v.64c0 .13 0 .14-.13.14h-1.74v.64c.68-.1 1.4-.22 2.07-.35a5.77 5.77 0 0 0-.09.6 1.56 1.56 0 0 0 0 .2 7.21 7.21 0 0 0 1.27-2.76 16.69 16.69 0 0 0 .31-3h-1c-.12 0-.13 0-.13-.12v-.97c0-.12 0-.13.13-.13h1v-.91a14.09 14.09 0 0 0-.07-1.68 12.09 12.09 0 0 1 1.21.08c.11 0 .18.06.18.12a1.22 1.22 0 0 1-.08.3 6.53 6.53 0 0 0 0 1.21V6h2.17c.07 0 .14 0 .14.14v1.18a42.39 42.39 0 0 1-.3 5.46 1.33 1.33 0 0 1-1.5 1.31h-.65c-.27 0-.27 0-.33-.41a3.07 3.07 0 0 0-.26-.81 8.64 8.64 0 0 0 1 .09c.37 0 .52-.15.61-.77a38.37 38.37 0 0 0 .28-5.06ZM54.26 8v-.95h-1V8Zm2.14-.91h-1V8h1Zm7.6 6.17c-.12-.09-.13-.15-.07-.24A5.77 5.77 0 0 0 65 11.09c0-.13 0-.15.22-.07l.75.28c.15.06.16.09.12.22a8 8 0 0 1-1.17 2.18c0 .06-.07.09-.12.09a.45.45 0 0 1-.13-.06Zm7.1-9.37a.33.33 0 0 1 .16-.07.19.19 0 0 1 .12.06A16.14 16.14 0 0 1 74 6.29c.09.11.07.14-.06.24l-.7.47c-.09.06-.13.09-.17.09S73 7.08 73 7c-.21-.27-.43-.55-.66-.8-2.06.21-4.62.37-6.82.45a2.21 2.21 0 0 0-.72.1.38.38 0 0 1-.19.06c-.08 0-.14-.06-.17-.19s-.15-.71-.21-1.13a11.7 11.7 0 0 0 1.26 0h.81a10.21 10.21 0 0 0 1-1.67 3.43 3.43 0 0 0 .27-.68c.43.1.9.22 1.22.33.11 0 .17.09.17.17a.24.24 0 0 1-.12.19.88.88 0 0 0-.3.33c-.29.46-.54.84-.89 1.3 1.31 0 2.65-.12 3.72-.22-.3-.26-.61-.51-.95-.76-.11-.08-.08-.14 0-.22ZM71 7.18h1.63c.07 0 .14 0 .14.14v2.87c0 .07 0 .14-.14.14h-6.91c-.07 0-.15 0-.15-.14v-2.9c0-.08 0-.14.15-.14h1.63Zm-3 5.35c0 .23.06.32.21.36a4.88 4.88 0 0 0 1.11.07 3.33 3.33 0 0 0 1.56-.19c.2-.13.27-.41.3-.93a4.81 4.81 0 0 0 .87.33c.3.08.31.09.27.39-.12.72-.35 1-.69 1.21a5.49 5.49 0 0 1-2.36.27 7.38 7.38 0 0 1-2-.16c-.34-.13-.49-.33-.49-.89V12a6 6 0 0 0-.06-1.11c.39 0 .85 0 1.2.07.14 0 .19.07.19.14a.53.53 0 0 1 0 .15.91.91 0 0 0-.07.44Zm3.57-4.4H66.8v1.19h4.72Zm-2.1 2.24c.14-.07.16-.06.27 0a6.6 6.6 0 0 1 1 1.08c.07.11 0 .15-.09.22l-.69.41a.36.36 0 0 1-.13.05s-.07 0-.11-.09a6.52 6.52 0 0 0-1-1.14c-.08-.08-.08-.13 0-.22Zm3.46.45c.12-.06.15-.06.25 0a10.63 10.63 0 0 1 1.43 2.05c0 .11 0 .16-.1.23l-.79.43a.3.3 0 0 1-.14.06s0 0-.09-.08a8.7 8.7 0 0 0-1.33-2.17c-.08-.11-.07-.15.07-.22ZM80.24 5l-1.12 9.1h-1.57L78.67 5h-2.52l.18-1.45h6.5L82.65 5ZM85 7.62l-.8 6.44h-1.51l.8-6.44Z"/><circle cx="84.66" cy="4.55" r=".85" style="fill:#b8bc0a"/><path class="cls-1" d="m88.61 7.62-.08.68a3.12 3.12 0 0 1 2.06-.84 2.84 2.84 0 0 1 2.14.9 3.14 3.14 0 0 1 .85 2.26 3.56 3.56 0 0 1-1 2.56 3.15 3.15 0 0 1-2.41 1A2.84 2.84 0 0 1 89 14a3.55 3.55 0 0 1-1-.84l-.57 4.61h-1.57L87.1 7.62Zm3.46 3.06a2 2 0 0 0-.49-1.4 1.61 1.61 0 0 0-1.26-.55 2 2 0 0 0-1.53.67 2.35 2.35 0 0 0-.62 1.65 1.88 1.88 0 0 0 .52 1.37A1.79 1.79 0 0 0 90 13a1.85 1.85 0 0 0 1.45-.65 2.39 2.39 0 0 0 .62-1.67Zm7.45-2.35-.86.86a1.74 1.74 0 0 0-1.11-.54.85.85 0 0 0-.58.19.62.62 0 0 0-.23.48.65.65 0 0 0 .19.48 4 4 0 0 0 .8.53 3.53 3.53 0 0 1 1.16.89 1.6 1.6 0 0 1 .32 1 1.84 1.84 0 0 1-.64 1.47 2.54 2.54 0 0 1-1.69.55A2.8 2.8 0 0 1 94.54 13l1-.69a1.74 1.74 0 0 0 1.3.73.88.88 0 0 0 .62-.21.65.65 0 0 0 .24-.53.58.58 0 0 0-.2-.46 1.94 1.94 0 0 0-.33-.25c-.16-.11-.38-.23-.65-.38a3.2 3.2 0 0 1-1-.78 1.75 1.75 0 0 1-.28-1A1.88 1.88 0 0 1 95.87 8a2.35 2.35 0 0 1 1.63-.57 2.84 2.84 0 0 1 2.02.9Z"/></g><path class="cls-3" d="M2.07 6.29a.49.49 0 0 1 .18.42.12.12 0 0 1-.14.1c-.08 0-.5-.29-.55-.45s0-.37-.3-.49a.37.37 0 0 0-.41.59.48.48 0 0 0 .43.17c.12 0 .44.45.38.53A1.2 1.2 0 0 1 .74 7a.39.39 0 0 0-.28-.23.36.36 0 0 0-.46.35c-.08.45.49.46.65.32s.78.14.77.31-.3.32-.48.25-.19-.15-.41-.06a.34.34 0 0 0-.2.5c.16.34.6.22.73-.11 0-.08.26-.09.48 0a2.29 2.29 0 0 0 1.2-.06 15.33 15.33 0 0 1 2.1.73.49.49 0 0 0 .52-.24c.16-.35-.23-.55-.23-.55A14.74 14.74 0 0 1 3 7.37s0-.18-.13-.37-.24-.17-.3-.3-.12-.3-.09-.4.08-.12.13-.27a.36.36 0 1 0-.54.25Z"/><path class="cls-3" d="M5.44 7.5S4 10.21 4.91 12a3.45 3.45 0 0 0 3.44 1.54 3 3 0 0 0 2.82-2c.56-1.44-.8-4.33-.8-4.33"/><path d="M6.14 7.24s-1.07 2.83-.37 4.14a2.48 2.48 0 0 0 2.46 1.1 2.12 2.12 0 0 0 2-1.4c.4-1-.7-3.87-.7-3.87" style="fill:#fdf7f9"/><path class="cls-3" d="M6.62 13.05v2.28s-.52-.3-.85 0l-.51-.27s.11-.34-.2-.4a.3.3 0 0 0-.37.41l.58.31-.84-.07s0-.3-.36-.19-.09.53-.09.53l1.2-.09-.7.55s-.47 0-.39.23.5 0 .5 0l.93-.53 1.6-.05s.36.38.59-.07-.25-.53-.25-.53v-2.05m1.71-.06v2.28s.52-.3.85 0l.51-.27s-.11-.34.2-.4.49.18.37.41l-.58.31.84-.07s0-.3.36-.19.09.53.09.53l-1.2-.09.7.55s.47 0 .39.23-.5 0-.5 0l-.93-.53-1.6-.05s-.36.38-.59-.07.25-.53.25-.53v-2.05m5.42-11.34A1.81 1.81 0 0 0 11.91 0a1.84 1.84 0 0 0-1.59.88 4.87 4.87 0 0 0-4.7 0A1.84 1.84 0 0 0 4.05 0a1.81 1.81 0 0 0-1.84 1.77 1.79 1.79 0 0 0 1.22 1.67 4.93 4.93 0 0 0-.35 1.77C3.08 7.35 5.25 8 7.92 8s4.84-.67 4.84-2.81a5.18 5.18 0 0 0-.32-1.74 1.8 1.8 0 0 0 1.31-1.68Z"/><path class="cls-5" d="M13.29 1.77a1.4 1.4 0 0 1-2.79 0 1.4 1.4 0 0 1 2.79 0Z"/><path class="cls-6" d="M12.93 1.77a1 1 0 0 1-2.06 0 1 1 0 0 1 2.06 0Z"/><path class="cls-5" d="M5.44 1.77a1.36 1.36 0 0 1-1.39 1.34 1.36 1.36 0 0 1-1.39-1.34A1.36 1.36 0 0 1 4.05.43a1.36 1.36 0 0 1 1.39 1.34Z"/><ellipse class="cls-6" cx="4.05" cy="1.77" rx="1.03" ry=".99"/><path class="cls-6" d="M4.94 4.87a3.67 3.67 0 0 0 2.89 1 6 6 0 0 0 3.38-1.15l.13.37a5.3 5.3 0 0 1-3.51 1C5.3 6.13 4.62 5 4.62 5Z"/><path d="M13.05 4.83a.86.86 0 1 1-.86-.83.86.86 0 0 1 .86.83Zm-8.48 0A.86.86 0 1 1 3.71 4a.85.85 0 0 1 .86.83Z" style="fill:#e6928f"/><path class="cls-8" d="M10.59 7.51a1.78 1.78 0 0 0 .82-.51 3.42 3.42 0 0 1 2-1.15c1.07-.06 1.85-2 1.85-2l1.15 1a4.29 4.29 0 0 1-2.82 2 3.1 3.1 0 0 0-1.9.85 2.69 2.69 0 0 1-.83.42"/><path class="cls-8" d="M4.34 8c0 .15 0 .43 2.06.44 1.49 0 4.76-.1 4.91-.59S11 7.46 11 7.46a34.51 34.51 0 0 1-4.24.32c-.82 0-2-.35-2.21-.27s-.23.41-.21.49Z"/><path class="cls-3" d="M13.5 6.29a.49.49 0 0 0-.18.42.12.12 0 0 0 .14.1c.08 0 .5-.29.55-.45s0-.37.3-.49a.37.37 0 0 1 .41.59.48.48 0 0 1-.43.17c-.12 0-.44.45-.38.53a1.19 1.19 0 0 0 .92-.16.39.39 0 0 1 .28-.23.36.36 0 0 1 .45.31c.08.45-.49.46-.65.32s-.78.14-.77.31.31.32.49.28.19-.18.41-.09a.34.34 0 0 1 .2.5c-.16.34-.6.22-.73-.11 0-.08-.26-.09-.48 0a2.29 2.29 0 0 1-1.2-.06 15.33 15.33 0 0 0-2.1.74.49.49 0 0 1-.52-.24c-.16-.35.23-.55.23-.55a14.74 14.74 0 0 0 2.1-.82s0-.18.16-.36.24-.17.3-.3.12-.3.09-.4S13 6.19 13 6a.36.36 0 1 1 .54.25ZM8 12a1.76 1.76 0 0 1-1.87-1.3.39.39 0 0 1 0-.3.31.31 0 0 1 .25-.11h3.2a.3.3 0 0 1 .25.11.41.41 0 0 1 .06.3A1.82 1.82 0 0 1 8 12Zm-1.41-1.46H6.3a.13.13 0 0 0 0 .12 1.56 1.56 0 0 0 1.66 1.12H8a1.6 1.6 0 0 0 1.69-1.12.16.16 0 0 0 0-.12.12.12 0 0 0-.09 0h-3Z"/></g></g></g></svg>