<svg xmlns="http://www.w3.org/2000/svg" width="180" height="36"><path d="M8.179 28.374c4.949 0 8.565-2.92 8.565-7.214 0-4.26-3.4-5.908-6.564-7.351l-1.755-.79c-2.809-1.271-5.473-2.576-5.473-5.535 0-2.4 1.86-4.4 5.125-4.4a10.148 10.148 0 0 1 6.981 3.2l.562-1.924a15.765 15.765 0 0 0-7.161-1.821c-4.879 0-8.073 2.817-8.073 6.6 0 4.088 3.686 5.874 6.459 7.111l1.755.756c2.6 1.168 5.616 2.645 5.616 5.943 0 2.817-2.317 4.878-5.721 4.878a11 11 0 0 1-7.863-3.438L0 26.553a21.373 21.373 0 0 0 8.179 1.821ZM21.587 1.168v26.794h3.3V.137h-.14Zm7.055 14.943.632-.55a63.432 63.432 0 0 1 7.722-5.771v-.069h-2.421a51.554 51.554 0 0 1-5.686 5.324L25.8 17.656l11.126 11.062h.176v-4.363ZM54.02 9.722a38.508 38.508 0 0 1-3.053 9.962l-1.825 4.26-6.319-14.223h-3.58l8.179 18.344-1.158 2.748a5.384 5.384 0 0 1-4.95 3.471 5.942 5.942 0 0 1-1.72-.24l-.211 1.958c3.159 0 5.862-1.2 7.547-5.153l4.634-10.925c1.9-4.466 3.019-7.248 4.493-10.2Zm25.765 18.652a12.135 12.135 0 0 0 10.667-5.977l-.421-.24a10.167 10.167 0 0 1-8.67 4.706c-5.651 0-9.9-4.466-9.9-12.057 0-6.7 3.51-11.714 8.881-11.714 3.4 0 6.213 2.1 8 5.015l1.755-1.546a12.934 12.934 0 0 0-9.583-4.019c-7.406 0-12.987 5.118-12.987 13.122.008 7.729 5.238 12.71 12.258 12.71Zm23.132 0a9.2 9.2 0 0 0 9.583-9.618c0-5.84-3.931-9.447-9.267-9.447a9.226 9.226 0 0 0-9.581 9.653c0 5.84 3.929 9.412 9.265 9.412Zm.211-.481c-3.475 0-5.9-3.641-5.9-9.137 0-5.427 2.282-8.966 5.792-8.966 3.475 0 5.9 3.676 5.9 9.172-.001 5.393-2.283 8.931-5.793 8.931Zm22.424-26.725a8.893 8.893 0 0 1 3.756.824l.246-.412A10.784 10.784 0 0 0 124.043 0c-3.651 0-6.037 2.233-6.037 6.492v3.229h-2.7v.756h2.7v17.485h3.335V10.477h5.411l.491-.756h-5.9v-3.4c.002-3.537 1.581-5.153 4.209-5.153Zm14.076 0a8.893 8.893 0 0 1 3.756.824l.246-.412A10.784 10.784 0 0 0 138.119 0c-3.65 0-6.037 2.233-6.037 6.492v3.229h-2.7v.756h2.7v17.485h3.335V10.477h5.406l.491-.756h-5.9v-3.4c.006-3.537 1.586-5.153 4.218-5.153Zm19.624 16.385c.07-4.844-2.527-8.244-7.582-8.244-5.406 0-9.442 3.882-9.442 9.824 0 5.565 3.721 9.24 8.74 9.24a9.418 9.418 0 0 0 8.073-4.534l-.421-.24a7.775 7.775 0 0 1-6.213 3.3c-3.791 0-6.634-3.023-6.634-8.725v-.618Zm-7.863-7.729c2.984 0 4.879 2.851 4.668 7.179h-10.25c.354-4.19 2.53-7.179 5.584-7.179Zm28.607 7.729c.07-4.844-2.527-8.244-7.582-8.244-5.406 0-9.442 3.882-9.442 9.824 0 5.565 3.721 9.24 8.74 9.24a9.418 9.418 0 0 0 8.073-4.534l-.421-.24a7.775 7.775 0 0 1-6.213 3.3c-3.791 0-6.634-3.023-6.634-8.725v-.618Zm-7.863-7.729c2.984 0 4.879 2.851 4.668 7.179h-10.249c.354-4.19 2.53-7.179 5.584-7.179Z" fill="#fff"/></svg>