<svg height="56" viewBox="0 0 280 56" width="280" xmlns="http://www.w3.org/2000/svg"><path d="m15.536-1.447c7.7 0 12.357-4.542 12.357-11.221 0-6.626-5.3-9.191-10.211-11.435l-2.73-1.229c-4.368-1.977-8.518-4.008-8.518-8.6 0-3.74 2.894-6.84 7.972-6.84 4.532 0 8.463 2.511 10.866 4.969l.874-2.992a24.523 24.523 0 0 0 -11.139-2.835c-7.59 0-12.558 4.382-12.558 10.26 0 6.359 5.733 9.137 10.047 11.061l2.73 1.176c4.041 1.817 8.736 4.115 8.736 9.244 0 4.382-3.6 7.588-8.9 7.588-4.423 0-9.61-2.191-12.231-5.344l-.983 3.366a38.912 38.912 0 0 0 13.688 2.832zm19.892-42.32v41.679h5.133v-43.282h-.218zm10.972 23.244.983-.855a98.671 98.671 0 0 1 12.017-8.977v-.107h-3.769a80.2 80.2 0 0 1 -8.845 8.282l-4.8 4.061 17.303 17.207h.273v-6.788zm39.48-9.939c-.328 3.26-1.8 8.5-4.75 15.5l-2.84 6.622-9.828-22.122h-5.569l12.722 28.534-1.8 4.275a8.375 8.375 0 0 1 -7.7 5.4 9.243 9.243 0 0 1 -2.675-.374l-.328 3.046c4.914 0 9.118-1.87 11.739-8.015l7.207-16.992c2.948-6.947 4.7-11.275 6.989-15.87zm40.078 29.015a18.877 18.877 0 0 0 16.6-9.3l-.655-.374a15.815 15.815 0 0 1 -13.488 7.321c-8.791 0-15.4-6.947-15.4-18.756 0-10.42 5.46-18.221 13.814-18.221 5.3 0 9.665 3.26 12.449 7.8l2.73-2.4a20.12 20.12 0 0 0 -14.908-6.253c-11.521 0-20.2 7.962-20.2 20.412 0 12.023 8.137 19.771 19.058 19.771zm35.983 0c8.518 0 14.906-5.931 14.906-14.962 0-9.084-6.115-14.695-14.415-14.695-8.518 0-14.906 5.985-14.906 15.015 0 9.089 6.115 14.642 14.414 14.642zm.328-.748c-5.406 0-9.173-5.664-9.173-14.214 0-8.443 3.549-13.947 9.009-13.947 5.406 0 9.173 5.718 9.173 14.267-.001 8.389-3.55 13.894-9.01 13.894zm34.891-41.573a13.834 13.834 0 0 1 5.84 1.283l.382-.641a16.776 16.776 0 0 0 -8.572-2.458c-5.679 0-9.391 3.473-9.391 10.1v5.023h-4.2v1.176h4.2v27.2h5.187v-27.2h8.409l.764-1.176h-9.173v-5.29c0-5.505 2.457-8.016 6.553-8.016zm21.9 0a13.834 13.834 0 0 1 5.842 1.282l.382-.641a16.776 16.776 0 0 0 -8.572-2.458c-5.679 0-9.391 3.473-9.391 10.1v5.023h-4.2v1.176h4.2v27.2h5.179v-27.2h8.409l.764-1.176h-9.173v-5.29c0-5.504 2.459-8.015 6.554-8.015zm30.522 25.489c.109-7.534-3.931-12.824-11.794-12.824-8.409 0-14.688 6.038-14.688 15.282 0 8.656 5.788 14.374 13.6 14.374 5.133 0 9.446-2.4 12.558-7.053l-.655-.374a12.094 12.094 0 0 1 -9.664 5.13c-5.9 0-10.32-4.7-10.32-13.573v-.962zm-12.237-12.021c4.641 0 7.59 4.435 7.262 11.168h-15.943c.546-6.521 3.936-11.168 8.681-11.168zm44.5 12.023c.109-7.534-3.931-12.824-11.794-12.824-8.409 0-14.688 6.038-14.688 15.282 0 8.656 5.788 14.374 13.6 14.374 5.133 0 9.446-2.4 12.558-7.053l-.655-.374a12.094 12.094 0 0 1 -9.664 5.13c-5.9 0-10.32-4.7-10.32-13.573v-.962zm-12.23-12.023c4.641 0 7.59 4.435 7.262 11.168h-15.944c.546-6.521 3.932-11.168 8.682-11.168z" fill="#222" transform="translate(-1.848 45.584)"/></svg>